#!OML:ASF F:\VICON\USERDATA\INSTALL\rory3\rory3.ASF
:FULLY-SPECIFIED
:DEGREES
1633
root -12.962 17.707 9.98474 900.914 6.39552 -545.014
lowerback 12.8138 0.868422 -5.08318
upperback 0.953414 0.547681 -0.298141
thorax -6.22932 0.463365 2.45159
lowerneck -20.507 -6.69483 -11.5601
upperneck 33.1365 -6.05449 6.27255
head 15.8118 -2.52195 3.66056
rclavicle -1.4561e-014 -5.56597e-015
rhumerus -32.8344 -9.93628 -82.2981
rradius 36.3535
rwrist 2.39279
rhand -16.942 8.34476
rfingers 7.12502
rthumb 9.29128 -21.4305
lclavicle -1.4561e-014 -5.56597e-015
lhumerus -34.4261 6.03881 84.3382
lradius 32.0396
lwrist -6.86236
lhand -15.6121 30.0866
lfingers 7.12502
lthumb 10.5743 59.8006
rfemur -30.5471 -4.99333 16.8202
rtibia 35.3248
rfoot -5.03875 -4.51652
rtoes -0.225502
lfemur 13.8486 -0.697556 -30.4183
ltibia 6.36111e-015
lfoot -6.88666 1.78353
ltoes -6.82725
1634
root -12.9362 17.7155 9.89716 900.983 6.15242 -545.072
lowerback 12.7955 0.794202 -5.19543
upperback 0.979837 0.43808 -0.287074
thorax -6.18288 0.412353 2.5467
lowerneck -20.3997 -6.75522 -11.6325
upperneck 33.0398 -6.18133 6.39318
head 15.7645 -2.57056 3.69646
rclavicle -1.5704e-014 1.70955e-014
rhumerus -32.8782 -10.1928 -82.2152
rradius 36.0454
rwrist 2.29654
rhand -16.9926 8.30486
rfingers 7.12502
rthumb 9.2425 -21.4726
lclavicle -1.5704e-014 1.70955e-014
lhumerus -34.2615 5.81171 84.5132
lradius 32.1768
lwrist -6.90552
lhand -16.1656 28.6595
lfingers 7.12502
lthumb 10.0404 58.4
rfemur -30.5849 -4.8794 16.8064
rtibia 33.6254
rfoot -4.26633 -4.76905
rtoes 0.841784
lfemur 14.0976 -0.978025 -30.4391
ltibia 6.36111e-015
lfoot -6.71159 1.8247
ltoes -7.54472
1635
root -12.9098 17.7248 9.79659 900.904 5.93148 -545.186
lowerback 12.7762 0.713065 -5.35023
upperback 1.02042 0.314012 -0.304357
thorax -6.11913 0.355059 2.63824
lowerneck -20.1365 -6.73675 -11.5566
upperneck 32.8438 -6.22422 6.4023
head 15.6098 -2.58244 3.67248
rclavicle 3.23025e-015 -7.95139e-016
rhumerus -33.1346 -10.5453 -82.1303
rradius 35.8816
rwrist 2.42709
rhand -16.9402 8.16808
rfingers 7.12502
rthumb 9.29308 -21.6071
lclavicle 3.23025e-015 -7.95139e-016
lhumerus -34.228 5.45554 84.6515
lradius 32.2915
lwrist -6.78584
lhand -15.9061 28.7728
lfingers 7.12502
lthumb 10.2907 58.501
rfemur -30.4016 -4.80433 16.7311
rtibia 31.9991
rfoot -3.56482 -4.71571
rtoes 0.101979
lfemur 14.5585 -1.21221 -30.5164
ltibia -5.725e-014
lfoot -6.63422 1.86764
ltoes -8.89409
1636
root -12.8769 17.7268 9.69272 900.884 5.54295 -545.365
lowerback 12.7383 0.560958 -5.62183
upperback 1.04161 0.0802561 -0.295949
thorax -6.0555 0.247125 2.84228
lowerneck -20.1661 -6.73785 -11.6393
upperneck 32.8577 -6.24474 6.54489
head 15.6362 -2.58137 3.74533
rclavicle 2.88238e-015 4.37326e-015
rhumerus -33.4285 -10.7527 -82.0364
rradius 35.8456
rwrist 2.61226
rhand -16.7268 8.02126
rfingers 7.12502
rthumb 9.49895 -21.7446
lclavicle 2.88238e-015 4.37326e-015
lhumerus -34.1655 5.23046 84.7999
lradius 32.402
lwrist -6.66612
lhand -14.9867 30.452
lfingers 7.12502
lthumb 11.1776 60.1343
rfemur -30.2544 -4.73607 16.5738
rtibia 30.4673
rfoot -3.028 -4.73932
rtoes -1.20804
lfemur 14.9221 -1.63295 -30.6107
ltibia -2.54444e-014
lfoot -6.4782 1.75758
ltoes -9.57639
1637
root -12.8454 17.7267 9.58813 900.872 5.22259 -545.505
lowerback 12.6169 0.440147 -5.8266
upperback 1.13031 -0.0904973 -0.278286
thorax -5.87706 0.164673 3.00636
lowerneck -20.2795 -6.7409 -11.6627
upperneck 32.8543 -6.25015 6.57949
head 15.664 -2.58406 3.76123
rclavicle -1.04362e-015 -6.36111e-015
rhumerus -33.4855 -10.9705 -81.9257
rradius 35.6297
rwrist 2.69376
rhand -16.5389 8.07859
rfingers 7.12502
rthumb 9.68024 -21.679
lclavicle -1.04362e-015 -6.36111e-015
lhumerus -33.9174 5.02836 84.9884
lradius 32.4675
lwrist -6.49031
lhand -14.3378 31.1549
lfingers 7.12502
lthumb 11.8034 60.8023
rfemur -30.1109 -4.7224 16.4756
rtibia 29.0598
rfoot -2.67657 -4.65086
rtoes -2.54022
lfemur 15.2625 -1.98828 -30.6616
ltibia -4.13472e-014
lfoot -6.37465 1.49706
ltoes -10.0527
1638
root -12.8162 17.7282 9.48496 900.836 5.06022 -545.529
lowerback 12.533 0.37725 -5.88036
upperback 1.20672 -0.166932 -0.249149
thorax -5.74126 0.125092 3.08034
lowerneck -20.2311 -6.75162 -11.6294
upperneck 32.8047 -6.26464 6.51414
head 15.6262 -2.59752 3.72166
rclavicle -5.01931e-015 5.96354e-015
rhumerus -33.509 -11.3881 -81.748
rradius 35.1688
rwrist 2.96131
rhand -16.5274 8.3448
rfingers 7.12502
rthumb 9.6913 -21.4122
lclavicle -5.01931e-015 5.96354e-015
lhumerus -33.6568 4.96748 85.1032
lradius 32.3866
lwrist -6.64746
lhand -14.243 31.4054
lfingers 7.12502
lthumb 11.8948 61.0475
rfemur -29.9542 -4.61319 16.4992
rtibia 27.8006
rfoot -2.43221 -4.58148
rtoes -2.98494
lfemur 15.6544 -2.17626 -30.6215
ltibia 3.81667e-014
lfoot -6.298 1.38866
ltoes -11.3723
1639
root -12.7875 17.7306 9.38066 900.803 4.917 -545.551
lowerback 12.483 0.318373 -5.93308
upperback 1.21527 -0.246509 -0.201656
thorax -5.69609 0.0859844 3.17383
lowerneck -20.0395 -6.76878 -11.7348
upperneck 32.7551 -6.2865 6.57424
head 15.5695 -2.61159 3.76197
rclavicle 2.68359e-015 8.34896e-015
rhumerus -33.722 -11.6983 -81.5477
rradius 34.8176
rwrist 3.18855
rhand -16.5297 8.30523
rfingers 7.12502
rthumb 9.68913 -21.4519
lclavicle 2.68359e-015 8.34896e-015
lhumerus -33.5157 4.91161 85.212
lradius 32.2378
lwrist -6.7858
lhand -14.1823 31.5367
lfingers 7.12502
lthumb 11.9534 61.1754
rfemur -29.7681 -4.45307 16.5098
rtibia 26.6434
rfoot -2.26848 -4.51396
rtoes -3.28754
lfemur 16.0754 -2.34433 -30.5909
ltibia 4.77083e-014
lfoot -6.19982 1.34803
ltoes -11.8654
1640
root -12.7597 17.7279 9.27681 900.75 4.77529 -545.642
lowerback 12.4253 0.262317 -6.0066
upperback 1.25441 -0.32308 -0.210977
thorax -5.61429 0.0480158 3.21796
lowerneck -19.9202 -6.772 -11.7916
upperneck 32.7065 -6.32854 6.70639
head 15.5326 -2.61783 3.82059
rclavicle -4.47266e-015 8.34896e-015
rhumerus -33.8708 -11.9078 -81.4655
rradius 34.5389
rwrist 3.09063
rhand -16.5092 7.94004
rfingers 7.12502
rthumb 9.70886 -21.8162
lclavicle -4.47266e-015 8.34896e-015
lhumerus -33.4208 4.60198 85.3483
lradius 32.248
lwrist -6.66871
lhand -14.1715 31.5141
lfingers 7.12502
lthumb 11.9637 61.1522
rfemur -29.5264 -4.36516 16.4694
rtibia 25.5974
rfoot -2.44987 -4.49653
rtoes -3.44533
lfemur 16.5313 -2.51212 -30.6184
ltibia -1.59028e-014
lfoot -5.98628 1.19051
ltoes -12.0515
1641
root -12.7326 17.7235 9.17022 900.747 4.73711 -545.662
lowerback 12.3419 0.246688 -5.97878
upperback 1.28181 -0.333147 -0.232973
thorax -5.53797 0.0398376 3.17998
lowerneck -19.8692 -6.80191 -11.7728
upperneck 32.6783 -6.40221 6.74885
head 15.5175 -2.64087 3.82046
rclavicle -1.04362e-014 -1.19271e-014
rhumerus -33.9666 -12.1246 -81.3974
rradius 34.2036
rwrist 2.99197
rhand -16.5206 7.82412
rfingers 7.12502
rthumb 9.69794 -21.9326
lclavicle -1.04362e-014 -1.19271e-014
lhumerus -33.3047 4.31624 85.4311
lradius 32.2784
lwrist -6.58507
lhand -14.6763 30.7345
lfingers 7.12502
lthumb 11.477 60.4004
rfemur -29.317 -4.11629 16.4752
rtibia 24.694
rfoot -3.04737 -4.63755
rtoes -2.87346
lfemur 16.909 -2.58582 -30.5738
ltibia -3.18055e-015
lfoot -5.67402 1.04111
ltoes -14.8447
1642
root -12.7026 17.7225 9.05972 900.705 4.7328 -545.593
lowerback 12.2964 0.245387 -5.90957
upperback 1.29125 -0.32161 -0.208789
thorax -5.50406 0.042504 3.16425
lowerneck -19.8038 -6.85175 -11.6932
upperneck 32.7172 -6.45907 6.61892
head 15.5187 -2.67115 3.74149
rclavicle 4.42296e-015 -1.11319e-014
rhumerus -34.2317 -12.4783 -81.2285
rradius 33.9718
rwrist 3.20311
rhand -16.4723 7.89142
rfingers 7.12502
rthumb 9.74452 -21.8631
lclavicle 4.42296e-015 -1.11319e-014
lhumerus -33.1866 4.22566 85.5049
lradius 32.2066
lwrist -6.56308
lhand -14.9909 29.8606
lfingers 7.12502
lthumb 11.1735 59.543
rfemur -29.0351 -3.80186 16.5788
rtibia 23.9675
rfoot -3.60087 -4.66178
rtoes -3.26465
lfemur 17.3352 -2.61816 -30.4384
ltibia 1.27222e-014
lfoot -5.50761 0.896284
ltoes -19.1618
1643
root -12.674 17.7244 8.95046 900.612 4.65013 -545.57
lowerback 12.3369 0.195432 -5.88801
upperback 1.27594 -0.387372 -0.164273
thorax -5.53628 0.0107868 3.21058
lowerneck -19.8302 -6.88204 -11.6335
upperneck 32.9092 -6.44305 6.45785
head 15.6057 -2.67207 3.67364
rclavicle -1.98785e-015 2.82274e-014
rhumerus -34.5084 -12.6111 -81.0833
rradius 33.6981
rwrist 3.34159
rhand -16.4078 7.72638
rfingers 7.12502
rthumb 9.80676 -22.0253
lclavicle -1.98785e-015 2.82274e-014
lhumerus -33.2388 4.2226 85.585
lradius 32.2805
lwrist -6.66312
lhand -15.7685 28.6905
lfingers 7.12502
lthumb 10.4235 58.4121
rfemur -28.6935 -3.78233 16.7221
rtibia 23.4441
rfoot -3.97215 -4.28159
rtoes -4.93061
lfemur 17.8029 -2.72395 -30.3337
ltibia 2.54444e-014
lfoot -5.45736 0.687688
ltoes -19.7048
1644
root -12.6436 17.7243 8.83822 900.568 4.59166 -545.614
lowerback 12.3113 0.152054 -5.92992
upperback 1.22892 -0.453292 -0.141716
thorax -5.56504 -0.0202446 3.26926
lowerneck -19.7043 -6.90166 -11.7605
upperneck 32.9702 -6.454 6.54673
head 15.619 -2.67594 3.73769
rclavicle -6.01324e-015 -7.95139e-015
rhumerus -34.8467 -12.6603 -80.9473
rradius 33.4855
rwrist 3.29397
rhand -16.2228 7.47929
rfingers 7.12502
rthumb 9.98519 -22.2639
lclavicle -6.01324e-015 -7.95139e-015
lhumerus -33.3234 4.15611 85.6421
lradius 32.3245
lwrist -6.75285
lhand -16.6705 27.2898
lfingers 7.12502
lthumb 9.5533 57.0532
rfemur -28.4441 -3.69023 16.7863
rtibia 23.2005
rfoot -4.34248 -3.86174
rtoes -7.45187
lfemur 18.2169 -2.81914 -30.2865
ltibia -9.54166e-015
lfoot -5.25277 0.433237
ltoes -18.0132
1645
root -12.6125 17.726 8.72549 900.585 4.57286 -545.684
lowerback 12.2087 0.115012 -5.98847
upperback 1.21376 -0.505818 -0.135187
thorax -5.51819 -0.0467843 3.31717
lowerneck -19.6845 -6.90005 -11.7644
upperneck 32.9599 -6.45059 6.53815
head 15.6088 -2.67682 3.73495
rclavicle 8.84592e-015 -7.15625e-015
rhumerus -35.1083 -12.7457 -80.8317
rradius 33.3143
rwrist 3.35719
rhand -16.1156 7.53807
rfingers 7.12502
rthumb 10.0887 -22.2001
lclavicle 8.84592e-015 -7.15625e-015
lhumerus -33.2809 4.2752 85.6397
lradius 32.3159
lwrist -6.96668
lhand -16.7476 26.4967
lfingers 7.12502
lthumb 9.47888 56.2635
rfemur -28.3013 -3.41586 16.784
rtibia 23.2206
rfoot -4.48347 -3.55397
rtoes -10.0537
lfemur 18.5741 -2.88808 -30.26
ltibia 2.54444e-014
lfoot -4.90097 0.141803
ltoes -17.1122
1646
root -12.5852 17.7277 8.60925 900.494 4.62551 -545.786
lowerback 12.1865 0.119048 -5.99292
upperback 1.22495 -0.500254 -0.184659
thorax -5.49484 -0.0446911 3.2661
lowerneck -19.7207 -6.91874 -11.6702
upperneck 33.0191 -6.47215 6.44504
head 15.6393 -2.68493 3.67613
rclavicle -2.02263e-014 1.51076e-014
rhumerus -35.3167 -13.0372 -80.6963
rradius 33.0414
rwrist 3.46965
rhand -16.0915 7.82412
rfingers 7.12502
rthumb 10.1119 -21.9129
lclavicle -2.02263e-014 1.51076e-014
lhumerus -33.2299 4.08077 85.7102
lradius 32.2637
lwrist -6.52939
lhand -16.93 26.2413
lfingers 7.12502
lthumb 9.30293 56.016
rfemur -28.0519 -3.22333 16.7635
rtibia 23.4019
rfoot -4.2201 -3.12109
rtoes -11.36
lfemur 19.0593 -2.86381 -30.2923
ltibia -5.08889e-014
lfoot -4.58221 -0.166664
ltoes -16.7876
1647
root -12.5576 17.7311 8.48861 900.382 4.70745 -545.844
lowerback 12.1562 0.129043 -5.97047
upperback 1.21479 -0.484096 -0.19782
thorax -5.49072 -0.0377877 3.23663
lowerneck -19.6257 -6.93859 -11.7377
upperneck 33.0598 -6.48671 6.47718
head 15.6445 -2.69197 3.70277
rclavicle -1.19271e-015 -1.74931e-014
rhumerus -35.5809 -13.3693 -80.4858
rradius 32.7045
rwrist 3.73488
rhand -16.0546 7.77225
rfingers 7.12502
rthumb 10.1475 -21.963
lclavicle -1.19271e-015 -1.74931e-014
lhumerus -33.235 3.80283 85.8758
lradius 31.9684
lwrist -5.37341
lhand -18.4001 24.5829
lfingers 7.12502
lthumb 7.8842 54.4159
rfemur -27.7711 -3.03783 16.7922
rtibia 23.7246
rfoot -3.65441 -2.58212
rtoes -9.94126
lfemur 19.5766 -2.80934 -30.272
ltibia -1.27222e-014
lfoot -4.30201 -0.498248
ltoes -15.628
